<svg width="70" height="70" viewBox="0 0 70 70" fill="none" xmlns="http://www.w3.org/2000/svg">
<g clip-path="url(#clip0_38_399)">
<path d="M65.433 6.84424H15.7313C13.213 6.84424 11.1643 8.89297 11.1643 11.4112V16.5928H4.56695C2.04873 16.5928 0 18.6416 0 21.1598V58.5889C0 61.1071 2.04873 63.1558 4.56695 63.1558H54.2686C56.7868 63.1558 58.8355 61.1071 58.8355 58.5889V53.4072H65.433C67.9513 53.4072 70 51.3585 70 48.8403V11.4112C70 8.89297 67.9513 6.84424 65.433 6.84424ZM4.56695 19.3272H54.2686C55.2791 19.3272 56.1012 20.1493 56.1012 21.1598V23.7763H2.73438V21.1598C2.73438 20.1492 3.55646 19.3272 4.56695 19.3272ZM2.73438 26.5107H56.1012V32.6428H2.73438V26.5107ZM54.2686 60.4213H4.56695C3.55646 60.4213 2.73438 59.5992 2.73438 58.5887V35.377H56.1012V58.5887C56.1012 59.5992 55.2791 60.4213 54.2686 60.4213ZM67.2656 48.8401C67.2656 49.8506 66.4435 50.6727 65.433 50.6727H58.8355V21.1598C58.8355 18.6416 56.7868 16.5928 54.2686 16.5928H13.8988V11.4112C13.8988 10.4007 14.7209 9.57861 15.7314 9.57861H65.4332C66.4437 9.57861 67.2658 10.4007 67.2658 11.4112V48.8401H67.2656Z" fill="#34A353"/>
<path d="M25.1421 41.2418H8.57959C7.82449 41.2418 7.2124 41.8539 7.2124 42.609V54.2725C7.2124 55.0276 7.82449 55.6397 8.57959 55.6397H25.1421C25.8972 55.6397 26.5093 55.0276 26.5093 54.2725V42.609C26.5093 41.8539 25.8972 41.2418 25.1421 41.2418ZM23.7749 52.9053H9.94678V43.9762H23.7749V52.9053Z" fill="#34A353"/>
<path d="M49.0388 41.2418H40.814C40.0589 41.2418 39.4468 41.8539 39.4468 42.609C39.4468 43.3641 40.0589 43.9762 40.814 43.9762H49.0388C49.7939 43.9762 50.406 43.3641 50.406 42.609C50.406 41.8539 49.7939 41.2418 49.0388 41.2418Z" fill="#34A353"/>
<path d="M49.0388 47.0736H40.814C40.0589 47.0736 39.4468 47.6857 39.4468 48.4408C39.4468 49.1959 40.0589 49.808 40.814 49.808H49.0388C49.7939 49.808 50.406 49.1959 50.406 48.4408C50.406 47.6857 49.7939 47.0736 49.0388 47.0736Z" fill="#34A353"/>
<path d="M49.0388 52.9054H36.0098C35.2547 52.9054 34.6426 53.5175 34.6426 54.2726C34.6426 55.0277 35.2547 55.6398 36.0098 55.6398H49.0388C49.7939 55.6398 50.406 55.0277 50.406 54.2726C50.406 53.5175 49.7939 52.9054 49.0388 52.9054Z" fill="#34A353"/>
</g>
<defs>
<clipPath id="clip0_38_399">
<rect width="70" height="70" fill="white"/>
</clipPath>
</defs>
</svg>
