<svg width="100" height="80" viewBox="0 0 100 80" fill="none" xmlns="http://www.w3.org/2000/svg">
<rect x="4.53339" y="5.86682" width="88.8" height="56.8" fill="#E5EBF3"/>
<path d="M19.3333 27.0666C23.5982 27.0666 27.0666 23.5982 27.0666 19.3333C27.0666 15.0684 23.5982 11.6 19.3333 11.6C15.0684 11.6 11.6 15.0684 11.6 19.3333C11.6 23.5982 15.0684 27.0666 19.3333 27.0666Z" fill="#BEC9D8"/>
<path d="M87.5 0H12.5C5.61 0 0 5.61 0 12.5V67.5C0 74.39 5.61 80 12.5 80H87.5C94.39 80 100 74.39 100 67.5V12.5C100 5.61 94.39 0 87.5 0ZM12.5 10H87.5C88.88 10 90 11.12 90 12.5V47.995L74.205 29.565C72.53 27.6 70.105 26.55 67.5 26.49C64.91 26.505 62.48 27.655 60.82 29.645L42.25 51.935L36.2 45.9C32.78 42.48 27.215 42.48 23.8 45.9L10 59.695V12.5C10 11.12 11.12 10 12.5 10Z" fill="#BEC9D8"/>
</svg>
