<svg width="120" height="120" viewBox="0 0 120 120" fill="none" xmlns="http://www.w3.org/2000/svg">
<g clip-path="url(#clip0_6_45)">
<path d="M60 120C93.1371 120 120 93.1371 120 60C120 26.8629 93.1371 0 60 0C26.8629 0 0 26.8629 0 60C0 93.1371 26.8629 120 60 120Z" fill="#BEC9D8"/>
</g>
<g clip-path="url(#clip1_6_45)">
<path d="M60.5 45.6943C55.0886 45.6943 50.6855 41.2913 50.6855 35.8799C50.6855 30.4685 55.0886 26.0654 60.5 26.0654C65.9114 26.0654 70.3145 30.4685 70.3145 35.8799C70.3145 41.2913 65.9114 45.6943 60.5 45.6943Z" fill="#E5EBF3"/>
<path d="M28.312 82.1387C25.6073 77.452 27.2194 71.4386 31.9062 68.732C36.6893 65.9729 42.6476 67.7105 45.3129 72.3243C48.0246 77.0182 46.4173 83.0177 41.7207 85.7309C37.015 88.4446 31.022 86.8296 28.312 82.1387Z" fill="#E5EBF3"/>
<path d="M79.2794 85.731C74.5858 83.0194 72.9739 77.0208 75.6872 72.3243C78.3524 67.7107 84.3105 65.9728 89.0938 68.7321C93.7806 71.4388 95.3927 77.452 92.688 82.1387C89.9814 86.8238 83.9918 88.4485 79.2794 85.731Z" fill="#E5EBF3"/>
<path d="M35.0208 62.0631L31.1028 61.8484C31.6126 52.563 36.5736 43.9676 44.3714 38.8534L46.526 42.1351C39.7652 46.569 35.4655 54.0199 35.0208 62.0631Z" fill="#E5EBF3"/>
<path d="M85.9793 62.0631C85.5346 54.0199 81.235 46.569 74.4741 42.1352L76.6287 38.8535C84.4266 43.9678 89.3875 52.5631 89.8973 61.8485L85.9793 62.0631Z" fill="#E5EBF3"/>
<path d="M60.5001 92.9346C55.8305 92.9346 51.3661 91.8726 47.2275 89.7812L48.9987 86.2772C56.1679 89.904 64.8322 89.904 72.0013 86.2772L73.7725 89.7812C69.6341 91.8726 65.1697 92.9346 60.5001 92.9346Z" fill="#E5EBF3"/>
</g>
<defs>
<clipPath id="clip0_6_45">
<rect width="120" height="120" fill="white"/>
</clipPath>
<clipPath id="clip1_6_45">
<rect width="67" height="67" fill="white" transform="translate(27 26)"/>
</clipPath>
</defs>
</svg>
