<svg width="70" height="70" viewBox="0 0 70 70" fill="none" xmlns="http://www.w3.org/2000/svg">
<g clip-path="url(#clip0_48_1626)">
<path d="M42.3253 55.4182L48.2814 55.0759L68.9557 36.9855L64.215 31.5596L43.5401 49.6673L42.3253 55.4182Z" fill="#BEC9D8"/>
<path d="M43.8824 15.0953H51.4477L38.7479 2.41357V9.96085C38.7566 12.7935 41.0504 15.0873 43.8824 15.0953Z" fill="#BEC9D8"/>
<path d="M49.0683 58.4648L40.2715 58.9609H40.1685C39.6691 58.9582 39.1945 58.7403 38.8682 58.3619C38.5259 57.954 38.3875 57.4125 38.4911 56.8897L40.2882 48.4011C40.3678 48.0374 40.559 47.7078 40.8364 47.4598L53.8264 36.0951V18.5182H43.8656C39.1403 18.5169 35.3095 14.6861 35.3082 9.96075V0H6.33247C3.50049 0.00802262 1.20602 2.30249 1.198 5.13447V64.8655C1.20602 67.6975 3.50049 69.992 6.33247 70H48.7093C51.5413 69.992 53.8351 67.6975 53.8438 64.8655V54.7677L50.0952 58.0369C49.8077 58.2857 49.448 58.4354 49.0683 58.4648ZM12.3401 22.7802H28.4281C29.3728 22.7802 30.1396 23.5464 30.1396 24.4917C30.1396 25.4364 29.3728 26.2032 28.4281 26.2032H12.3401C11.3947 26.2032 10.6286 25.4364 10.6286 24.4917C10.6286 23.5464 11.3947 22.7802 12.3401 22.7802ZM12.3401 34.0413H44.5161C45.4608 34.0413 46.2276 34.8081 46.2276 35.7528C46.2276 36.6981 45.4608 37.4643 44.5161 37.4643H12.3401C11.3947 37.4643 10.6286 36.6981 10.6286 35.7528C10.6286 34.8081 11.3947 34.0413 12.3401 34.0413ZM34.8629 59.9878H12.3401C11.3947 59.9878 10.6286 59.2216 10.6286 58.2763C10.6286 57.331 11.3947 56.5648 12.3401 56.5648H34.8629C35.8082 56.5648 36.5744 57.331 36.5744 58.2763C36.5744 59.2216 35.8082 59.9878 34.8629 59.9878ZM34.8629 48.726H12.3401C11.3947 48.726 10.6286 47.9599 10.6286 47.0145C10.6286 46.0692 11.3947 45.3031 12.3401 45.3031H34.8629C35.8082 45.3031 36.5744 46.0692 36.5744 47.0145C36.5744 47.9599 35.8082 48.726 34.8629 48.726Z" fill="#BEC9D8"/>
</g>
<defs>
<clipPath id="clip0_48_1626">
<rect width="70" height="70" fill="white"/>
</clipPath>
</defs>
</svg>
