<svg width="51" height="70" viewBox="0 0 51 70" fill="none" xmlns="http://www.w3.org/2000/svg">
<path d="M50.6953 19.168V65.4883C50.6953 67.9766 48.6719 70 46.1836 70H4.51172C2.02344 70 0 67.9766 0 65.4883V4.51172C0 2.02344 2.02344 0 4.51172 0H31.5273L50.6953 19.168Z" fill="#744ABD"/>
<path d="M15.9141 35.2324H38.3086V38.1172H15.9141V35.2324Z" fill="white"/>
<path d="M10.8281 38.2813C11.7191 38.2813 12.4414 37.559 12.4414 36.668C12.4414 35.777 11.7191 35.0547 10.8281 35.0547C9.93713 35.0547 9.21484 35.777 9.21484 36.668C9.21484 37.559 9.93713 38.2813 10.8281 38.2813Z" fill="white"/>
<path d="M15.9141 43.4355H38.3086V46.3203H15.9141V43.4355Z" fill="white"/>
<path d="M10.8281 46.4844C11.7191 46.4844 12.4414 45.7621 12.4414 44.8711C12.4414 43.9801 11.7191 43.2578 10.8281 43.2578C9.93713 43.2578 9.21484 43.9801 9.21484 44.8711C9.21484 45.7621 9.93713 46.4844 10.8281 46.4844Z" fill="white"/>
<path d="M15.9141 51.6387H38.3086V54.5234H15.9141V51.6387Z" fill="white"/>
<path d="M10.8281 54.6875C11.7191 54.6875 12.4414 53.9652 12.4414 53.0742C12.4414 52.1832 11.7191 51.4609 10.8281 51.4609C9.93713 51.4609 9.21484 52.1832 9.21484 53.0742C9.21484 53.9652 9.93713 54.6875 10.8281 54.6875Z" fill="white"/>
<path opacity="0.19" d="M34.1387 18.5117L50.6953 31.9238V19.332L41.3027 13.877L34.1387 18.5117Z" fill="black"/>
<path d="M50.6954 19.168H36.0392C33.5509 19.168 31.5275 17.1445 31.5275 14.6562V0L50.6954 19.168Z" fill="#B7A2DD"/>
</svg>
