<svg width="70" height="70" viewBox="0 0 70 70" fill="none" xmlns="http://www.w3.org/2000/svg">
<path d="M68.6328 63.7109H60.9766V37.7344C60.9766 37.3718 60.8325 37.0241 60.5761 36.7676L35.9667 12.1582C35.4329 11.6245 34.5671 11.6245 34.0331 12.1582L9.42375 36.7676C9.16754 37.024 9.02344 37.3716 9.02344 37.7344V63.7109H1.36719C0.61209 63.7109 0 64.3231 0 65.0781C0 65.8331 0.61209 66.4453 1.36719 66.4453H68.6328C69.3879 66.4453 70 65.8331 70 65.0781C70 64.3231 69.3879 63.7109 68.6328 63.7109ZM58.2422 63.7109H36.3672V49.9869C45.3484 49.3005 52.4828 41.9093 52.7639 32.8223L58.2422 38.3006V63.7109ZM44.1699 39.5019C43.636 38.9681 42.7703 38.9681 42.2363 39.5019L36.8535 44.8847C38.4203 38.8678 43.6257 34.3039 49.9711 33.7007C49.3678 40.0461 44.804 45.2514 38.7871 46.8182L44.1699 41.4355C44.7038 40.9016 44.7038 40.0359 44.1699 39.5019ZM25.8301 52.373L31.2129 57.7557C25.196 56.1889 20.6322 50.9836 20.0289 44.6382C26.3743 45.2414 31.5797 49.8053 33.1465 55.8222L27.7638 50.4394C27.2299 49.9056 26.3642 49.9056 25.8301 50.4394C25.2962 50.9734 25.2962 51.8391 25.8301 52.373ZM11.7578 38.3006L35 15.0585L50.8494 30.908C41.3059 31.2032 33.6328 39.0578 33.6328 48.6719V50.1479C30.4821 45.1578 24.9189 41.8359 18.5938 41.8359C17.8387 41.8359 17.2266 42.4481 17.2266 43.2031C17.2266 52.5435 24.4688 60.224 33.6328 60.9244V63.7109H11.7578V38.3006Z" fill="#34A353"/>
<path d="M5.88858 35.9667L35 6.85535L64.1114 35.9667C64.3784 36.2336 64.7282 36.3672 65.0781 36.3672C65.428 36.3672 65.778 36.2336 66.0448 35.9667C66.5787 35.4329 66.5787 34.5671 66.0448 34.0331L35.9667 3.955C35.4328 3.42125 34.5671 3.42125 34.0331 3.955L19.9609 18.0273V10.3906C19.9609 9.63566 19.3488 9.02344 18.5937 9.02344H13.125C12.3699 9.02344 11.7578 9.63566 11.7578 10.3906V26.2304L3.9551 34.0331C3.42122 34.567 3.42122 35.4327 3.9551 35.9667C4.48899 36.5005 5.35469 36.5005 5.88858 35.9667ZM14.4922 11.7578H17.2265V20.7617L14.4922 23.4961V11.7578Z" fill="#34A353"/>
</svg>
