<svg width="67" height="70" viewBox="0 0 67 70" fill="none" xmlns="http://www.w3.org/2000/svg">
<path d="M18.2146 66.301C19.5951 67.6249 18.6196 69.8931 16.6586 69.8931H4.39017C1.96962 69.8931 0 68.0046 0 65.6833V53.9181C0 52.0381 2.36536 51.1031 3.74592 52.4262L18.2146 66.301Z" fill="#0A1551"/>
<path d="M37.3919 67.3238C33.761 63.7545 33.761 57.9685 37.3919 54.3992L50.4987 41.5193C54.1297 37.95 60.0177 37.95 63.6495 41.5193C67.2812 45.0877 67.2812 50.8746 63.6495 54.443L50.5435 67.3238C46.9117 70.8922 41.0236 70.8922 37.3919 67.3238Z" fill="#FFB21D"/>
<path d="M2.7658 34.9585C-0.865781 31.3901 -0.865781 25.6032 2.7658 22.0348L22.4633 2.67698C26.0951 -0.892327 31.9832 -0.892327 35.6149 2.67698C39.2458 6.24544 39.2458 12.0323 35.6149 15.6007L15.9171 34.9585C12.2853 38.5278 6.39738 38.5278 2.7658 34.9585Z" fill="#0099FF"/>
<path d="M20.7984 50.4189C17.1666 46.8495 17.1666 41.0636 20.7984 37.4942L50.6009 8.20652C54.2326 4.63721 60.1207 4.63721 63.7524 8.20652C67.3833 11.775 67.3833 17.5618 63.7524 21.1303L33.95 50.4189C30.3182 53.9882 24.4301 53.9882 20.7984 50.4189Z" fill="#FF6100"/>
</svg>
