<svg width="76" height="70" viewBox="0 0 76 70" fill="none" xmlns="http://www.w3.org/2000/svg">
<g clip-path="url(#clip0_47_1564)">
<path d="M75.3845 35V66.7975C75.3845 68.565 73.947 70 72.1763 70H20.7395C18.9688 70 17.5312 68.565 17.5312 66.7975V35L47.3345 31.5L75.3845 35Z" fill="#036C70"/>
<path d="M20.7395 0H72.1763C73.947 0 75.3845 1.435 75.3845 3.2025V35H17.5312V3.2025C17.5312 1.435 18.9688 0 20.7395 0Z" fill="#37C6D0"/>
<path d="M66.6189 43.75H49.0876V61.25H66.6189V43.75Z" fill="#1A9BA1"/>
<path d="M57.8533 28C63.6626 28 68.372 23.299 68.372 17.5C68.372 11.701 63.6626 7 57.8533 7C52.0439 7 47.3345 11.701 47.3345 17.5C47.3345 23.299 52.0439 28 57.8533 28Z" fill="#1A9BA1"/>
<path d="M57.8533 22.75C60.7579 22.75 63.1127 20.3995 63.1127 17.5C63.1127 14.6005 60.7579 12.25 57.8533 12.25C54.9486 12.25 52.5939 14.6005 52.5939 17.5C52.5939 20.3995 54.9486 22.75 57.8533 22.75Z" fill="#036C70"/>
<path opacity="0.1" d="M38.8668 14H17.5312V57.75H38.8668C40.6375 57.75 42.0751 56.315 42.0751 54.5475V17.2025C42.0751 15.435 40.6375 14 38.8668 14Z" fill="black"/>
<path opacity="0.2" d="M37.1137 15.75H17.5312V59.5H37.1137C38.8844 59.5 40.3219 58.065 40.3219 56.2975V18.9525C40.3219 17.185 38.8844 15.75 37.1137 15.75Z" fill="black"/>
<path opacity="0.2" d="M37.1137 15.75H17.5312V56H37.1137C38.8844 56 40.3219 54.565 40.3219 52.7975V18.9525C40.3219 17.185 38.8844 15.75 37.1137 15.75Z" fill="black"/>
<path opacity="0.2" d="M35.3606 15.75H17.5312V56H35.3606C37.1312 56 38.5688 54.565 38.5688 52.7975V18.9525C38.5688 17.185 37.1312 15.75 35.3606 15.75Z" fill="black"/>
<path d="M3.20823 15.75H35.3431C37.1138 15.75 38.5513 17.185 38.5513 18.9525V51.03C38.5513 52.7975 37.1138 54.2325 35.3431 54.2325H3.20823C1.43757 54.25 0 52.815 0 51.0475V18.9525C0 17.185 1.43757 15.75 3.20823 15.75Z" fill="url(#paint0_linear_47_1564)"/>
<path d="M25.7885 27.9651H16.7424V33.6526H25.1749V37.0301H16.7424V45.4301H12.6576V24.5701H25.8061L25.7885 27.9651Z" fill="white"/>
</g>
<defs>
<linearGradient id="paint0_linear_47_1564" x1="6.70018" y1="13.2435" x2="31.8013" y2="56.7953" gradientUnits="userSpaceOnUse">
<stop stop-color="#058F92"/>
<stop offset="0.5" stop-color="#038489"/>
<stop offset="1" stop-color="#026D71"/>
</linearGradient>
<clipPath id="clip0_47_1564">
<rect width="75.3846" height="70" fill="white"/>
</clipPath>
</defs>
</svg>
