<svg width="120" height="120" viewBox="0 0 120 120" fill="none" xmlns="http://www.w3.org/2000/svg">
<path d="M60 118.125C92.1015 118.125 118.125 92.1015 118.125 60C118.125 27.8984 92.1015 1.875 60 1.875C27.8984 1.875 1.875 27.8984 1.875 60C1.875 92.1015 27.8984 118.125 60 118.125Z" fill="#E5EBF3"/>
<path d="M106.644 94.6403C101.223 87.3826 94.1844 81.4894 86.0866 77.429C77.9889 73.3685 69.0557 71.2528 59.9969 71.25C50.9382 71.2472 42.0037 73.3573 33.9034 77.4126C25.8031 81.4679 18.7604 87.3568 13.3348 94.611C18.7328 101.902 25.764 107.827 33.8648 111.91C41.9656 115.994 50.9105 118.122 59.9823 118.125C69.054 118.128 78.0003 116.005 86.1036 111.927C94.2069 107.848 101.242 101.928 106.644 94.6403Z" fill="#BEC9D8"/>
<path d="M60 63.75C72.4264 63.75 82.5 53.6764 82.5 41.25C82.5 28.8236 72.4264 18.75 60 18.75C47.5736 18.75 37.5 28.8236 37.5 41.25C37.5 53.6764 47.5736 63.75 60 63.75Z" fill="#BEC9D8"/>
</svg>
