<svg width="120" height="120" viewBox="0 0 120 120" fill="none" xmlns="http://www.w3.org/2000/svg">
<g clip-path="url(#clip0_6_46)">
<path d="M60 120C93.1371 120 120 93.1371 120 60C120 26.8629 93.1371 0 60 0C26.8629 0 0 26.8629 0 60C0 93.1371 26.8629 120 60 120Z" fill="#BEC9D8"/>
</g>
<g clip-path="url(#clip1_6_46)">
<path d="M84.9375 87.4609C86.3312 87.4609 87.4609 86.3312 87.4609 84.9375C87.4609 83.5438 86.3312 82.4141 84.9375 82.4141C83.5438 82.4141 82.4141 83.5438 82.4141 84.9375C82.4141 86.3312 83.5438 87.4609 84.9375 87.4609Z" fill="#E5EBF3"/>
<path d="M93.5469 71.875H89.6415C95.8664 56.3438 89.0033 38.0292 73.0625 30.8632V26.4531C73.0625 23.9935 71.069 22 68.6094 22H51.3906C48.931 22 46.9375 23.9935 46.9375 26.4531V30.8647C35.7464 35.8771 27.6524 47.4204 28.1037 61.0539C28.227 64.8242 28.9988 68.4743 30.36 71.875H26.4531C23.9935 71.875 22 73.8685 22 76.3281V93.5469C22 96.0065 23.9935 98 26.4531 98H43.6719C46.1315 98 48.125 96.0065 48.125 93.5469V89.6415C55.7676 92.7046 64.3727 92.6414 71.875 89.6385V93.5469C71.875 96.0065 73.8685 98 76.3281 98H93.5469C96.0065 98 98 96.0065 98 93.5469V76.3281C98 73.8685 96.0065 71.875 93.5469 71.875ZM38.7734 86.7188L34.0234 90.2812C33.0424 91.0153 31.6481 90.8244 30.9062 89.8359C30.1685 88.8518 30.3674 87.4565 31.3516 86.7188L33.7266 84.9375L31.3516 83.1562C30.3674 82.4185 30.1685 81.0232 30.9062 80.0391C31.644 79.0549 33.0393 78.856 34.0234 79.5938L38.7734 83.1562C39.9609 84.0454 39.959 85.8311 38.7734 86.7188ZM71.875 76.3281V84.7772C64.5198 88.3048 55.6897 88.4111 48.125 84.7757V76.3281C48.125 73.8685 46.1315 71.875 43.6719 71.875H35.2228C28.9 58.6917 34.0551 42.8087 46.9375 35.8284V43.6719C46.9375 46.1315 48.931 48.125 51.3906 48.125H56.5859V40.8516H55.25C54.0209 40.8516 53.0234 39.8541 53.0234 38.625C53.0234 37.3959 54.0209 36.3984 55.25 36.3984H56.5859V34.7656C56.5859 31.0829 59.5829 28.0859 63.2656 28.0859H64.75C65.9791 28.0859 66.9766 29.0834 66.9766 30.3125C66.9766 31.5416 65.9791 32.5391 64.75 32.5391H63.2656C62.038 32.5391 61.0391 33.538 61.0391 34.7656V36.3984H64.75C65.9791 36.3984 66.9766 37.3959 66.9766 38.625C66.9766 39.8541 65.9791 40.8516 64.75 40.8516H61.0391V48.125H68.6094C71.069 48.125 73.0625 46.1315 73.0625 43.6719V35.8329C86.0489 42.8682 91.0568 58.8049 84.7757 71.875H76.3281C73.8685 71.875 71.875 73.8685 71.875 76.3281ZM84.9375 91.9141C81.09 91.9141 77.9609 88.785 77.9609 84.9375C77.9609 81.09 81.09 77.9609 84.9375 77.9609C88.785 77.9609 91.9141 81.09 91.9141 84.9375C91.9141 88.785 88.785 91.9141 84.9375 91.9141Z" fill="#E5EBF3"/>
</g>
<defs>
<clipPath id="clip0_6_46">
<rect width="120" height="120" fill="white"/>
</clipPath>
<clipPath id="clip1_6_46">
<rect width="76" height="76" fill="white" transform="translate(22 22)"/>
</clipPath>
</defs>
</svg>
