<svg width="70" height="70" viewBox="0 0 70 70" fill="none" xmlns="http://www.w3.org/2000/svg">
<g clip-path="url(#clip0_38_393)">
<path d="M57.4883 59.7153C64.3873 59.7153 70 54.1026 70 47.2037C70 42.5888 67.4699 38.3876 63.4676 36.2111C63.5662 35.5935 63.6159 34.9672 63.6159 34.3384C63.6159 27.8321 58.3227 22.5389 51.8164 22.5389C50.5704 22.5389 49.3694 22.7346 48.2409 23.0943C48.2571 22.7242 48.2681 22.3538 48.2681 21.984C48.2681 17.4874 47.0675 13.074 44.796 9.22086C42.5919 5.48187 39.4412 2.35689 35.6845 0.18375C35.261 -0.06125 34.7389 -0.06125 34.3153 0.18375C30.5586 2.35689 27.408 5.48187 25.2038 9.22086C22.9324 13.074 21.7317 17.4874 21.7317 21.984C21.7317 22.1715 21.7369 22.3586 21.741 22.5457C20.5773 22.3155 19.39 22.1975 18.1922 22.1975C14.4441 22.1975 10.8444 23.3285 7.78258 25.4682C4.79117 27.5588 2.51891 30.4568 1.21146 33.8492C0.939941 34.5537 1.29104 35.3451 1.99555 35.6166C2.15729 35.6789 2.3234 35.7085 2.48691 35.7085C3.03584 35.7085 3.55373 35.3754 3.76291 34.8325C6.04529 28.9105 11.8439 24.9318 18.1923 24.9318C19.4723 24.9318 20.737 25.0901 21.9647 25.398C22.4145 28.6937 23.5114 31.876 25.2038 34.7469C27.2244 38.1745 30.042 41.0837 33.3912 43.2191C32.1329 50.03 26.432 55.1785 19.5595 55.7869V50.5683L25.7923 44.3356C26.3262 43.8017 26.3262 42.936 25.7923 42.402C25.2584 41.8679 24.3927 41.8681 23.8587 42.402L19.5595 46.7011V36.5261C19.5595 35.771 18.9474 35.1589 18.1923 35.1589C17.4372 35.1589 16.8252 35.771 16.8252 36.5261V40.8047L14.1575 38.137C13.6236 37.6031 12.7579 37.6031 12.2239 38.137C11.6899 38.6709 11.69 39.5366 12.2239 40.0706L16.8252 44.6719V55.7837C11.0243 55.2597 5.88041 51.4408 3.76305 45.9475C3.49139 45.243 2.7002 44.8921 1.99555 45.1635C1.29104 45.4351 0.939941 46.2264 1.2116 46.931C2.51918 50.3233 4.79145 53.2213 7.78271 55.3116C10.4703 57.1897 13.5722 58.29 16.825 58.5312V67.2656H1.36719C0.61209 67.2656 0 67.8777 0 68.6328C0 69.3879 0.61209 70 1.36719 70H68.6328C69.3879 70 70 69.3879 70 68.6328C70 67.8777 69.3879 67.2656 68.6328 67.2656H52.3072V58.5945C53.9213 59.3313 55.6768 59.7153 57.4883 59.7153ZM60.8815 34.3386C60.8815 35.1143 60.7834 35.8848 60.5898 36.6287C60.4201 37.281 60.7511 37.9597 61.3696 38.2275C64.9512 39.7787 67.2656 43.3021 67.2656 47.2038C67.2656 52.595 62.8796 56.9811 57.4883 56.9811C55.6361 56.9811 53.8588 56.4684 52.3072 55.4948V47.4748L57.6879 42.0941C58.2218 41.5602 58.2218 40.6945 57.6879 40.1604C57.154 39.6266 56.2883 39.6266 55.7543 40.1604L52.3071 43.6077V40.6505C52.3071 39.8954 51.695 39.2833 50.9399 39.2833C50.1848 39.2833 49.5727 39.8954 49.5727 40.6505V48.8299L46.464 45.7212C45.9301 45.1873 45.0644 45.1873 44.5304 45.7212C43.9964 46.2551 43.9965 47.1208 44.5304 47.6548L49.5726 52.697V55.529C48.1722 56.4803 46.5475 56.981 44.8351 56.981C40.1658 56.981 36.3669 53.1821 36.3669 48.5127C36.3669 44.6101 39.0096 41.2303 42.7932 40.2938C43.1956 40.1941 43.531 39.9175 43.7053 39.5414C43.8796 39.1653 43.8737 38.7305 43.6897 38.3593C43.0668 37.1031 42.751 35.7503 42.751 34.3384C42.751 29.3398 46.8177 25.2733 51.8161 25.2733C56.8146 25.2733 60.8815 29.34 60.8815 34.3386ZM24.4662 21.984C24.4662 14.2666 28.4823 7.05168 35 2.96311C41.5177 7.05154 45.5338 14.2665 45.5338 21.984C45.5338 22.8055 45.487 23.6303 45.3984 24.4448C42.1626 26.5512 40.0169 30.1979 40.0169 34.3384C40.0169 35.0681 40.0843 35.7853 40.2134 36.488C39.07 37.8369 37.783 39.037 36.3672 40.0758V24.1604L40.569 19.9586C41.1029 19.4247 41.1029 18.559 40.569 18.025C40.0351 17.4911 39.1694 17.4911 38.6353 18.025L36.3672 20.2934V14.4922C36.3672 13.7371 35.7551 13.125 35 13.125C34.2449 13.125 33.6328 13.7371 33.6328 14.4922V26.6973L30.2445 23.309C29.7106 22.7752 28.8449 22.7752 28.311 23.309C27.7771 23.8429 27.7771 24.7086 28.311 25.2425L33.6328 30.5643V40.072C27.9263 35.8725 24.4662 29.1454 24.4662 21.984ZM19.5595 58.5304C25.4449 58.0884 30.6255 54.8179 33.6328 50.0105V67.2656H19.5595V58.5304ZM36.3672 67.2656V55.8343C38.4229 58.2088 41.4556 59.7155 44.8354 59.7155C46.5009 59.7155 48.1042 59.3579 49.5728 58.6688V67.2656H36.3672Z" fill="#34A353"/>
<path d="M61.8422 16.3151C66.3402 16.3151 69.9998 12.6555 69.9998 8.15746C69.9998 3.65941 66.3404 0 61.8422 0C57.344 0 53.6846 3.65941 53.6846 8.1576C53.6846 12.6558 57.3441 16.3151 61.8422 16.3151ZM61.8422 2.73438C64.8326 2.73438 67.2654 5.16715 67.2654 8.1576C67.2654 11.148 64.8326 13.5808 61.8422 13.5808C58.8517 13.5808 56.4189 11.148 56.4189 8.1576C56.4191 5.16715 58.8519 2.73438 61.8422 2.73438Z" fill="#34A353"/>
<path d="M1.36719 41.7566C1.72676 41.7566 2.07949 41.6117 2.33379 41.3574C2.58809 41.1017 2.73438 40.7503 2.73438 40.3908C2.73438 40.0298 2.58809 39.6785 2.33379 39.4228C2.07949 39.1685 1.72676 39.0222 1.36719 39.0222C1.00762 39.0222 0.654883 39.1685 0.400586 39.4228C0.146289 39.6771 0 40.0298 0 40.3908C0 40.7503 0.146289 41.1031 0.400586 41.3574C0.654883 41.6117 1.00762 41.7566 1.36719 41.7566Z" fill="#34A353"/>
</g>
<defs>
<clipPath id="clip0_38_393">
<rect width="70" height="70" fill="white"/>
</clipPath>
</defs>
</svg>
