<svg width="70" height="70" viewBox="0 0 70 70" fill="none" xmlns="http://www.w3.org/2000/svg">
<g clip-path="url(#clip0_38_365)">
<path d="M49.6617 25.8024C49.6575 25.7968 49.6534 25.7913 49.6492 25.786L36.142 8.39355C35.8836 8.06091 35.4864 7.86595 35.0655 7.86499C35.0644 7.86499 35.0633 7.86499 35.0623 7.86499C34.6425 7.86499 34.2457 8.05804 33.9866 8.38862L20.42 25.6899C20.3957 25.7209 20.3728 25.7528 20.3515 25.7854C17.6329 29.1337 16.1377 33.3472 16.1377 37.6695C16.1377 48.0704 24.5994 56.5322 35.0003 56.5322C45.4012 56.5322 53.8629 48.0704 53.8629 37.6695C53.8629 33.3586 52.3714 29.1465 49.6617 25.8024ZM35.0001 53.7979C26.1068 53.7979 18.8717 46.5626 18.8717 37.6693C18.8717 33.9284 20.1814 30.2828 22.5597 27.4041C22.5986 27.3569 22.634 27.3075 22.6658 27.2565L35.0571 11.4541L47.4581 27.422C47.4742 27.4445 47.4911 27.4664 47.5087 27.488C49.8432 30.3524 51.1287 33.9682 51.1287 37.6693C51.1287 46.5626 43.8934 53.7979 35.0001 53.7979Z" fill="#34A353"/>
<path d="M47.299 38.8652C46.5642 38.6917 45.8279 39.1472 45.6547 39.882C44.876 43.1856 42.5321 45.9305 39.3853 47.2249C38.6872 47.5122 38.3539 48.311 38.6413 49.0092C38.8586 49.5374 39.3682 49.8565 39.9061 49.8565C40.0793 49.8565 40.2555 49.8234 40.4258 49.7534C44.3858 48.1244 47.3355 44.6687 48.3162 40.5094C48.4892 39.7746 48.0338 39.0385 47.299 38.8652Z" fill="#34A353"/>
<path d="M47.3036 33.3195C46.5488 33.3195 45.9365 33.9316 45.9365 34.6865V34.7143C45.9365 35.4692 46.5488 36.0813 47.3036 36.0813C48.0584 36.0813 48.6706 35.4692 48.6706 34.7143V34.6865C48.6706 33.9316 48.0584 33.3195 47.3036 33.3195Z" fill="#34A353"/>
<path d="M51.776 4.50226L49.8653 1.1927C49.4878 0.538912 48.6522 0.314829 47.9979 0.69231C47.4392 1.01483 47.196 1.67163 47.3717 2.26403C40.8417 -0.202105 33.679 -0.668591 26.8294 0.977643C18.601 2.95542 11.374 7.84025 6.48027 14.7327C1.63413 21.5581 -0.613945 29.8843 0.150861 38.1772C0.216213 38.8864 0.812034 39.4189 1.51053 39.4188C1.55264 39.4188 1.59502 39.4169 1.63768 39.4129C2.3895 39.3436 2.9428 38.6781 2.87348 37.9261C1.41387 22.0984 11.9873 7.35695 27.4681 3.63614C34.2151 2.01466 41.2911 2.61745 47.6331 5.3156L46.5992 5.91265C45.9453 6.29027 45.7214 7.12617 46.0988 7.7801C46.3522 8.21869 46.8116 8.46369 47.2841 8.46369C47.5159 8.46369 47.7511 8.40463 47.9663 8.28035L51.2757 6.36957C51.9295 5.99222 52.1536 5.15605 51.776 4.50226Z" fill="#34A353"/>
<path d="M69.6879 30.3705C69.5875 29.6222 68.8991 29.0967 68.1511 29.1974C67.4028 29.2979 66.8777 29.9859 66.9782 30.7343C69.0934 46.4879 59.1409 61.6555 43.8275 66.0156C37.2706 67.8826 30.4686 67.6509 24.0978 65.3548L25.3904 64.5352C26.0281 64.1308 26.217 63.2863 25.8129 62.6486C25.4086 62.011 24.5641 61.822 23.9262 62.2262L20.6991 64.2726C20.0618 64.6767 19.8726 65.5205 20.276 66.1582L22.3019 69.3589C22.5621 69.77 23.0052 69.9951 23.4583 69.9951C23.7082 69.9951 23.9613 69.9266 24.1881 69.7829C24.6453 69.4936 24.8706 68.978 24.814 68.4742C28.1281 69.4891 31.5338 70.0001 34.9541 70.0001C38.1708 70.0001 41.4005 69.5494 44.5764 68.6451C52.7158 66.3277 59.7336 61.147 64.337 54.0575C68.8959 47.0368 70.7963 38.6245 69.6879 30.3705Z" fill="#34A353"/>
<path d="M18.4841 51.269C18.4824 51.2667 18.4809 51.2645 18.4791 51.2622L11.5134 42.1001C11.2554 41.7609 10.8544 41.5614 10.4282 41.5603C10.4272 41.5603 10.4261 41.5603 10.4251 41.5603C10.0003 41.5603 9.59945 41.7579 9.34064 42.095L2.34418 51.209C2.32791 51.2303 2.31233 51.2518 2.29743 51.2738C0.81717 53.147 0.00341797 55.4977 0.00341797 57.9078C0.00341797 63.7435 4.66431 68.4912 10.393 68.4912C16.1216 68.4912 20.7825 63.7434 20.7825 57.9078C20.7825 55.498 19.9666 53.142 18.4841 51.269ZM10.393 65.7571C6.17163 65.7571 2.73753 62.2359 2.73753 57.9078C2.73753 56.0819 3.36233 54.3039 4.49696 52.9013C4.5269 52.8642 4.55479 52.8258 4.58036 52.7863L10.4199 45.1794L16.2791 52.8861C16.2928 52.9051 16.3069 52.9238 16.3217 52.9422C17.4352 54.3379 18.0487 56.1015 18.0487 57.9078C18.0484 62.2359 14.6143 65.7571 10.393 65.7571Z" fill="#34A353"/>
<path d="M14.9043 56.5406C14.1494 56.5406 13.5372 57.1527 13.5372 57.9077C13.5372 59.6949 12.1268 61.1489 10.3929 61.1489C9.63811 61.1489 9.02588 61.761 9.02588 62.516C9.02588 63.2709 9.63811 63.883 10.3929 63.883C13.6343 63.883 16.2713 61.2025 16.2713 57.9077C16.2713 57.1527 15.6592 56.5406 14.9043 56.5406Z" fill="#34A353"/>
<path d="M67.698 9.70855C67.6962 9.70623 67.6947 9.70404 67.693 9.70172L60.7273 0.539767C60.4693 0.200567 60.0681 0.00109375 59.6421 0C59.641 0 59.6399 0 59.639 0C59.2142 0 58.8135 0.197559 58.5545 0.534708L51.5581 9.64867C51.5419 9.66959 51.5266 9.69105 51.5117 9.71279C50.0312 11.586 49.2173 13.937 49.2173 16.3474C49.2173 22.1831 53.8782 26.9308 59.6068 26.9308C65.3356 26.9308 69.9964 22.1829 69.9964 16.3474C69.9964 13.9375 69.1803 11.5816 67.698 9.70855ZM59.6068 24.1967C55.3855 24.1967 51.9514 20.6755 51.9514 16.3474C51.9514 14.5215 52.5763 12.7436 53.7107 11.3408C53.7405 11.3039 53.7681 11.2659 53.7935 11.2267L59.6338 3.61895L65.493 11.3257C65.5067 11.3447 65.5208 11.3634 65.5355 11.3817C66.6491 12.7775 67.2626 14.541 67.2626 16.3474C67.2623 20.6756 63.828 24.1967 59.6068 24.1967Z" fill="#34A353"/>
<path d="M64.1181 14.9805C63.3633 14.9805 62.7511 15.5926 62.7511 16.3475C62.7511 18.1347 61.3407 19.5887 59.6068 19.5887C58.852 19.5887 58.2397 20.2008 58.2397 20.9558C58.2397 21.7107 58.852 22.3228 59.6068 22.3228C62.8481 22.3228 65.4852 19.6423 65.4852 16.3475C65.4852 15.5924 64.8731 14.9805 64.1181 14.9805Z" fill="#34A353"/>
</g>
<defs>
<clipPath id="clip0_38_365">
<rect width="70" height="70" fill="white"/>
</clipPath>
</defs>
</svg>
